<svg width="16" height="16" viewBox="0 0 16 16" fill="none" xmlns="http://www.w3.org/2000/svg">
<path d="M8.00016 9.99998C9.10473 9.99998 10.0002 9.10455 10.0002 7.99998C10.0002 6.89541 9.10473 5.99998 8.00016 5.99998C6.89559 5.99998 6.00016 6.89541 6.00016 7.99998C6.00016 9.10455 6.89559 9.99998 8.00016 9.99998Z" stroke="white" stroke-linecap="round" stroke-linejoin="round"/>
<path d="M12.485 9.81816C12.4043 10.001 12.3803 10.2037 12.4159 10.4003C12.4516 10.5969 12.5453 10.7784 12.685 10.9212L12.7214 10.9576C12.8341 11.0701 12.9235 11.2038 12.9845 11.351C13.0455 11.4981 13.0769 11.6558 13.0769 11.8151C13.0769 11.9744 13.0455 12.1322 12.9845 12.2793C12.9235 12.4265 12.8341 12.5601 12.7214 12.6727C12.6088 12.7854 12.4751 12.8748 12.328 12.9358C12.1808 12.9968 12.0231 13.0282 11.8638 13.0282C11.7045 13.0282 11.5468 12.9968 11.3996 12.9358C11.2525 12.8748 11.1188 12.7854 11.0062 12.6727L10.9699 12.6363C10.827 12.4966 10.6456 12.4029 10.449 12.3673C10.2524 12.3316 10.0496 12.3557 9.86683 12.4363C9.68758 12.5132 9.5347 12.6407 9.42702 12.8033C9.31933 12.9659 9.26155 13.1565 9.26077 13.3515V13.4545C9.26077 13.776 9.13306 14.0843 8.90575 14.3116C8.67843 14.5389 8.37012 14.6666 8.04865 14.6666C7.72717 14.6666 7.41887 14.5389 7.19155 14.3116C6.96423 14.0843 6.83653 13.776 6.83653 13.4545V13.4C6.83183 13.1994 6.7669 13.0048 6.65017 12.8416C6.53344 12.6784 6.37031 12.5541 6.18198 12.4848C5.99918 12.4042 5.79641 12.3801 5.59981 12.4157C5.4032 12.4514 5.22179 12.5451 5.07895 12.6848L5.04259 12.7212C4.93001 12.8339 4.79633 12.9233 4.64918 12.9843C4.50203 13.0453 4.3443 13.0767 4.18501 13.0767C4.02572 13.0767 3.86799 13.0453 3.72084 12.9843C3.57369 12.9233 3.44001 12.8339 3.32744 12.7212C3.21474 12.6086 3.12533 12.4749 3.06433 12.3278C3.00333 12.1806 2.97194 12.0229 2.97194 11.8636C2.97194 11.7043 3.00333 11.5466 3.06433 11.3994C3.12533 11.2523 3.21474 11.1186 3.32744 11.006L3.3638 10.9697C3.50352 10.8268 3.59725 10.6454 3.63289 10.4488C3.66854 10.2522 3.64448 10.0494 3.5638 9.86665C3.48697 9.68739 3.35941 9.53452 3.19681 9.42683C3.03421 9.31915 2.84367 9.26136 2.64865 9.26059H2.54562C2.22414 9.26059 1.91584 9.13288 1.68852 8.90556C1.4612 8.67825 1.3335 8.36994 1.3335 8.04846C1.3335 7.72699 1.4612 7.41868 1.68852 7.19137C1.91584 6.96405 2.22414 6.83634 2.54562 6.83634H2.60016C2.80077 6.83165 2.99532 6.76672 3.15853 6.64999C3.32173 6.53325 3.44605 6.37012 3.51531 6.1818C3.59599 5.999 3.62006 5.79623 3.58441 5.59962C3.54876 5.40302 3.45503 5.2216 3.31531 5.07877L3.27895 5.0424C3.16625 4.92983 3.07685 4.79615 3.01585 4.649C2.95485 4.50185 2.92345 4.34412 2.92345 4.18483C2.92345 4.02554 2.95485 3.86781 3.01585 3.72066C3.07685 3.57351 3.16625 3.43983 3.27895 3.32725C3.39152 3.21455 3.52521 3.12515 3.67236 3.06415C3.81951 3.00315 3.97723 2.97175 4.13653 2.97175C4.29582 2.97175 4.45355 3.00315 4.6007 3.06415C4.74785 3.12515 4.88153 3.21455 4.9941 3.32725L5.03047 3.36362C5.1733 3.50334 5.35472 3.59706 5.55132 3.63271C5.74792 3.66836 5.9507 3.64429 6.1335 3.56362H6.18198C6.36124 3.48679 6.51411 3.35923 6.6218 3.19663C6.72948 3.03403 6.78726 2.84349 6.78804 2.64846V2.54543C6.78804 2.22396 6.91575 1.91565 7.14306 1.68834C7.37038 1.46102 7.67869 1.33331 8.00016 1.33331C8.32164 1.33331 8.62995 1.46102 8.85726 1.68834C9.08458 1.91565 9.21228 2.22396 9.21228 2.54543V2.59998C9.21306 2.795 9.27085 2.98554 9.37853 3.14814C9.48621 3.31074 9.63909 3.43831 9.81835 3.51513C10.0011 3.59581 10.2039 3.61987 10.4005 3.58422C10.5971 3.54858 10.7785 3.45485 10.9214 3.31513L10.9577 3.27877C11.0703 3.16607 11.204 3.07666 11.3511 3.01566C11.4983 2.95467 11.656 2.92327 11.8153 2.92327C11.9746 2.92327 12.1323 2.95467 12.2795 3.01566C12.4266 3.07666 12.5603 3.16607 12.6729 3.27877C12.7856 3.39134 12.875 3.52502 12.936 3.67217C12.997 3.81932 13.0284 3.97705 13.0284 4.13634C13.0284 4.29563 12.997 4.45336 12.936 4.60051C12.875 4.74766 12.7856 4.88135 12.6729 4.99392L12.6365 5.03028C12.4968 5.17312 12.4031 5.35453 12.3674 5.55114C12.3318 5.74774 12.3559 5.95052 12.4365 6.13331V6.1818C12.5134 6.36105 12.6409 6.51393 12.8035 6.62161C12.9661 6.72929 13.1567 6.78708 13.3517 6.78786H13.4547C13.7762 6.78786 14.0845 6.91556 14.3118 7.14288C14.5391 7.3702 14.6668 7.67851 14.6668 7.99998C14.6668 8.32145 14.5391 8.62976 14.3118 8.85708C14.0845 9.0844 13.7762 9.2121 13.4547 9.2121H13.4002C13.2051 9.21288 13.0146 9.27067 12.852 9.37835C12.6894 9.48603 12.5618 9.63891 12.485 9.81816Z" stroke="white" stroke-linecap="round" stroke-linejoin="round"/>
</svg>
